HIERARCHY
ROOT Hips
{
	OFFSET 0.000000 0.000000 0.000000
	CHANNELS 6 Xposition Yposition Zposition Zrotation Yrotation Xrotation 
	JOINT LHipJoint
	{
		OFFSET 0.000000 0.000000 0.000000
		CHANNELS 3 Zrotation Yrotation Xrotation
		JOINT LeftUpLeg
		{
			OFFSET 1.363060 -1.794630 0.839290
			CHANNELS 3 Zrotation Yrotation Xrotation
			JOINT LeftLeg
			{
				OFFSET 2.448110 -6.726130 0.000000
				CHANNELS 3 Zrotation Yrotation Xrotation
				JOINT LeftFoot
				{
					OFFSET 2.562200 -7.039590 0.000000
					CHANNELS 3 Zrotation Yrotation Xrotation
					JOINT LeftToeBase
					{
						OFFSET 0.157640 -0.433110 2.322550
						CHANNELS 3 Zrotation Yrotation Xrotation
						End Site
						{
							OFFSET 0.000000 0.000000 0.000000
						}
					}
				}
			}
		}
	}
	JOINT RHipJoint
	{
		OFFSET 0.000000 0.000000 0.000000
		CHANNELS 3 Zrotation Yrotation Xrotation
		JOINT RightUpLeg
		{
			OFFSET -1.305520 -1.794630 0.839290
			CHANNELS 3 Zrotation Yrotation Xrotation
			JOINT RightLeg
			{
				OFFSET -2.542530 -6.985550 0.000000
				CHANNELS 3 Zrotation Yrotation Xrotation
				JOINT RightFoot
				{
					OFFSET -2.568260 -7.056230 0.000000
					CHANNELS 3 Zrotation Yrotation Xrotation
					JOINT RightToeBase
					{
						OFFSET -0.164730 -0.452590 2.363150
						CHANNELS 3 Zrotation Yrotation Xrotation
						End Site
						{
							OFFSET 0.000000 0.000000 0.000000
						}
					}
				}
			}
		}
	}
	JOINT LowerBack
	{
		OFFSET 0.000000 0.000000 0.000000
		CHANNELS 3 Zrotation Yrotation Xrotation
		JOINT Spine
		{
			OFFSET 0.028270 2.035590 -0.193380
			CHANNELS 3 Zrotation Yrotation Xrotation
			JOINT Spine1
			{
				OFFSET 0.056720 2.048850 -0.042750
				CHANNELS 3 Zrotation Yrotation Xrotation
				JOINT Neck
				{
					OFFSET 0.000000 0.000000 0.000000
					CHANNELS 3 Zrotation Yrotation Xrotation
					JOINT Neck1
					{
						OFFSET -0.054170 1.746240 0.172020
						CHANNELS 3 Zrotation Yrotation Xrotation
						JOINT Head
						{
							OFFSET 0.104070 1.761360 -0.123970
							CHANNELS 3 Zrotation Yrotation Xrotation
							End Site
							{
								OFFSET 0.000000 0.000000 0.000000
							}
						}
					}
				}
				JOINT LeftShoulder
				{
					OFFSET 0.000000 0.000000 0.000000
					CHANNELS 3 Zrotation Yrotation Xrotation
					JOINT LeftArm
					{
						OFFSET 3.362410 1.200890 -0.311210
						CHANNELS 3 Zrotation Yrotation Xrotation
						JOINT LeftForeArm
						{
							OFFSET 4.983000 -0.000000 -0.000000
							CHANNELS 3 Zrotation Yrotation Xrotation
							JOINT LeftHand
							{
								OFFSET 3.483560 -0.000000 -0.000000
								CHANNELS 3 Zrotation Yrotation Xrotation
								JOINT LeftFingerBase
								{
									OFFSET 0.000000 0.000000 0.000000
									CHANNELS 3 Zrotation Yrotation Xrotation
									JOINT LeftHandIndex1
									{
										OFFSET 0.715260 -0.000000 -0.000000
										CHANNELS 3 Zrotation Yrotation Xrotation
										End Site
										{
											OFFSET 0.000000 0.000000 0.000000
										}
									}
								}
								JOINT LThumb
								{
									OFFSET 0.000000 0.000000 0.000000
									CHANNELS 3 Zrotation Yrotation Xrotation
									End Site
									{
										OFFSET 0.000000 0.000000 0.000000
									}
								}
							}
						}
					}
				}
				JOINT RightShoulder
				{
					OFFSET 0.000000 0.000000 0.000000
					CHANNELS 3 Zrotation Yrotation Xrotation
					JOINT RightArm
					{
						OFFSET -3.136600 1.374050 -0.404650
						CHANNELS 3 Zrotation Yrotation Xrotation
						JOINT RightForeArm
						{
							OFFSET -5.241900 -0.000000 -0.000000
							CHANNELS 3 Zrotation Yrotation Xrotation
							JOINT RightHand
							{
								OFFSET -3.444170 -0.000000 -0.000000
								CHANNELS 3 Zrotation Yrotation Xrotation
								JOINT RightFingerBase
								{
									OFFSET 0.000000 0.000000 0.000000
									CHANNELS 3 Zrotation Yrotation Xrotation
									JOINT RightHandIndex1
									{
										OFFSET -0.622530 -0.000000 -0.000000
										CHANNELS 3 Zrotation Yrotation Xrotation
										End Site
										{
											OFFSET 0.000000 0.000000 0.000000
										}
									}
								}
								JOINT RThumb
								{
									OFFSET 0.000000 0.000000 0.000000
									CHANNELS 3 Zrotation Yrotation Xrotation
									End Site
									{
										OFFSET 0.000000 0.000000 0.000000
									}
								}
							}
						}
					}
				}
			}
		}
	}
}
MOTION
Frames: 7
Frame Time: 0.008333
2.494950 16.994819 0.873936 -0.439358 78.708873 3.055948 -10.027931 0.733057 1.980493 -13.556440 7.465307 -31.337249 -2.572247 -0.319507 11.872106 1.240214 7.206473 -3.196866 0.791800 0.000000 -30.125199 9.614269 -4.125155 -0.965773 0.731471 -8.975255 13.286917 1.112464 -2.091641 19.304392 0.813156 12.475026 16.747274 4.684100 0.000000 -85.110800 -0.074875 2.171258 -2.557140 -0.259198 2.114638 -2.625865 -3.522725 2.031294 3.352072 6.548366 -11.610787 -11.035279 -0.603858 0.001880 -0.895922 0.000000 0.000000 0.000000 -8.204243 31.645745 1.805240 -80.904562 31.270208 -7.474664 -4.370183 -13.898944 -0.035968 -7.775959 12.110706 -0.831659 -0.062790 -0.164102 -0.000000 0.000000 0.000000 0.000000 0.000000 0.000000 0.000000 3.878438 -5.528187 0.607542 40.168554 10.557703 13.441375 2.096074 41.283862 0.010874 3.965588 4.168240 0.146629 0.043503 -0.099450 0.000000 0.000000 0.000000 0.000000 0.000000 0.000000 0.000000 
2.756698 16.987183 0.879129 0.729113 78.628969 3.834504 -10.092969 0.824500 1.871323 -13.585938 7.328031 -30.847186 -2.463921 -0.107212 13.846481 1.269840 7.510234 -2.940805 0.835100 0.000000 -29.057100 9.795290 -4.149799 -1.075012 -0.282270 -9.460003 12.494625 0.788920 -2.331567 22.317175 0.648589 13.418754 19.613087 5.740300 0.000000 -86.926300 -0.427647 2.109738 -2.377258 -0.328665 2.086428 -2.592800 -3.542821 2.005269 3.356787 6.751296 -11.742298 -11.064774 -0.596048 0.003328 -0.905571 0.000000 0.000000 0.000000 -8.220488 31.741833 1.828115 -81.276408 31.091263 -7.902942 -4.397916 -13.794876 -0.037515 -8.256812 12.637867 -0.922285 -0.060292 -0.165486 -0.000000 0.000000 0.000000 0.000000 0.000000 0.000000 0.000000 4.108185 -5.650585 0.582634 40.245920 10.122292 13.672571 2.082627 41.646514 0.010754 4.046349 4.156367 0.149223 0.041957 -0.097624 0.000000 0.000000 0.000000 0.000000 0.000000 0.000000 0.000000 
3.015064 16.979158 0.886403 2.048049 78.624503 4.770090 -10.150822 0.917511 1.735839 -13.740561 7.362893 -30.395139 -2.373064 0.088798 15.779718 1.297192 7.775928 -2.803612 0.857300 0.000000 -27.727800 9.986765 -4.141141 -1.185439 -1.283431 -10.038574 11.500879 0.460286 -2.529173 25.537761 0.424739 13.932746 22.437283 6.674500 -0.000000 -87.692800 -0.822794 2.009541 -2.170873 -0.404283 2.023287 -2.559115 -3.563090 1.944118 3.350624 6.965260 -11.875453 -11.096343 -0.595369 0.004278 -0.915806 0.000000 0.000000 0.000000 -8.193922 31.744209 1.856154 -81.615381 30.789970 -8.361482 -4.416982 -13.674316 -0.038496 -8.572866 13.038343 -0.988402 -0.058899 -0.165568 -0.000000 0.000000 0.000000 0.000000 0.000000 0.000000 0.000000 4.362664 -5.786104 0.554967 40.433648 9.654262 13.887737 2.070645 42.030842 0.010647 4.060498 4.169137 0.150222 0.041404 -0.096256 0.000000 0.000000 0.000000 0.000000 0.000000 0.000000 0.000000 
3.269489 16.970705 0.895712 3.484351 78.699678 5.847582 -10.198985 1.007606 1.587049 -13.981411 7.510654 -29.973464 -2.299573 0.263744 17.631883 1.322974 7.998040 -2.834241 0.850300 0.000000 -26.172000 10.180818 -4.097852 -1.297519 -2.222432 -10.678752 10.323441 0.144701 -2.685846 28.917738 0.152670 13.817002 25.082577 7.288400 0.000000 -87.252700 -1.247830 1.875134 -1.947667 -0.483855 1.927985 -2.526759 -3.583248 1.850479 3.329238 7.180817 -12.004077 -11.123916 -0.601923 0.004614 -0.924925 0.000000 0.000000 0.000000 -8.133386 31.651165 1.878345 -81.907488 30.395188 -8.715467 -4.414475 -13.478700 -0.037957 -8.617699 12.884131 -0.981801 -0.058117 -0.163199 -0.000000 0.000000 0.000000 0.000000 0.000000 0.000000 0.000000 4.628468 -5.936544 0.525970 40.741209 9.141461 14.078376 2.061761 42.430836 0.010565 4.023816 4.201785 0.149925 0.041722 -0.095207 0.000000 0.000000 0.000000 0.000000 0.000000 0.000000 0.000000 
3.519532 16.961996 0.907196 5.075983 78.852556 7.110467 -10.234182 1.093124 1.437174 -14.282942 7.702275 -29.549268 -2.243430 0.414473 19.356933 1.348510 8.180921 -3.061196 0.809600 -0.000000 -24.466100 10.372711 -4.019053 -1.416926 -3.079048 -11.363908 8.990462 -0.144666 -2.809734 32.405632 -0.154032 12.924172 27.392387 7.391299 -0.000000 -85.521000 -1.704706 1.702216 -1.711805 -0.567256 1.795933 -2.494515 -3.602629 1.719772 3.302812 7.400089 -12.137701 -11.155454 -0.614826 0.004529 -0.935048 0.000000 0.000000 0.000000 -8.018954 31.457396 1.913084 -82.154996 29.851225 -9.120631 -4.414788 -13.353428 -0.037833 -8.618541 13.022053 -0.992101 -0.058591 -0.160759 -0.000000 0.000000 0.000000 0.000000 0.000000 0.000000 0.000000 4.910205 -6.099596 0.494114 41.161035 8.611609 14.261695 2.056063 42.827955 0.010511 3.947257 4.254382 0.148731 0.042765 -0.094408 0.000000 0.000000 0.000000 0.000000 0.000000 0.000000 0.000000 
3.765214 16.953282 0.920521 6.790620 79.077843 8.532308 -10.255408 1.171782 1.294561 -14.613458 7.888591 -29.102450 -2.204189 0.540416 20.938545 1.372604 8.311001 -3.507542 0.729500 0.000000 -22.652300 10.557286 -3.909633 -1.546659 -3.822631 -12.074759 7.527702 -0.399587 -2.913465 35.946155 -0.482583 11.174845 29.197636 6.845800 0.000000 -82.540500 -2.175403 1.497993 -1.466374 -0.651724 1.632715 -2.462583 -3.622309 1.557696 3.268581 7.616342 -12.278283 -11.186026 -0.634038 0.003943 -0.944870 0.000000 0.000000 0.000000 -7.862961 31.174238 1.946931 -82.337666 29.192463 -9.424093 -4.405710 -13.244925 -0.037191 -8.484470 13.018273 -0.975893 -0.059741 -0.157134 -0.000000 0.000000 0.000000 0.000000 0.000000 0.000000 0.000000 5.201733 -6.284588 0.461417 41.692763 8.065476 14.438261 2.055389 43.205724 0.010490 3.851323 4.323414 0.147340 0.044338 -0.093673 0.000000 0.000000 0.000000 0.000000 0.000000 0.000000 0.000000 
4.006809 16.945042 0.935036 8.559717 79.360325 10.046782 -10.263289 1.242692 1.165797 -14.939866 8.033295 -28.612777 -2.180663 0.642454 22.366744 1.394107 8.375882 -4.177439 0.608000 0.000000 -20.766800 10.729782 -3.775826 -1.687845 -4.424446 -12.789605 5.958175 -0.619343 -3.010364 39.480531 -0.821981 8.595017 30.339802 5.625100 0.000000 -78.518000 -2.633185 1.269810 -1.214812 -0.733150 1.443604 -2.431873 -3.644996 1.369634 3.224224 7.822730 -12.412836 -11.211014 -0.660197 0.002704 -0.953061 0.000000 0.000000 0.000000 -7.677938 30.800771 1.979448 -82.449327 28.456171 -9.525895 -4.382770 -13.257059 -0.036248 -8.210214 13.022710 -0.943778 -0.061372 -0.153102 -0.000000 0.000000 0.000000 0.000000 0.000000 0.000000 0.000000 5.495783 -6.473986 0.428654 42.338241 7.480369 14.583489 2.061881 43.555972 0.010516 3.766803 4.400636 0.146450 0.046126 -0.092848 0.000000 0.000000 0.000000 0.000000 0.000000 0.000000 0.000000 
